<svg width="310" height="334" viewBox="0 0 310 334" fill="none" xmlns="http://www.w3.org/2000/svg">
<path d="M184.112 264.791C186.95 267.848 186.95 272.804 184.112 275.862L157.064 305.005C121.182 343.664 62.7969 343.666 26.9122 305.005C-8.97012 266.344 -8.97012 203.437 26.9122 164.777L53.9614 135.634C56.7986 132.577 61.3989 132.577 64.2367 135.634L88.212 161.465C91.0492 164.522 91.0492 169.478 88.212 172.536L61.1628 201.679C44.1662 219.992 44.1662 249.789 61.1628 268.102C78.1594 286.415 105.816 286.416 122.814 268.102L149.862 238.96C152.7 235.903 157.3 235.903 160.138 238.96L184.112 264.791ZM149.862 95.041C152.7 98.0978 157.3 98.0978 160.138 95.041L187.186 65.8982C204.183 47.5837 231.839 47.585 248.837 65.8982C265.834 84.2114 265.834 114.008 248.837 132.322L221.788 161.464C218.951 164.521 218.951 169.478 221.788 172.535L245.763 198.367C248.6 201.424 253.201 201.424 256.039 198.367L283.088 169.223C318.971 130.562 318.971 67.6569 283.088 28.9958C247.204 -9.66462 188.82 -9.66462 152.936 28.9958L125.888 58.1386C123.05 61.1955 123.05 66.152 125.888 69.2095L149.862 95.041ZM292.043 329.415L305.743 314.654C311.418 308.54 311.418 298.627 305.743 292.513L38.5069 4.58581C32.8318 -1.5286 23.6312 -1.5286 17.9568 4.58581L4.25627 19.347C-1.41876 25.4614 -1.41876 35.3744 4.25627 41.4882L271.493 329.415C277.168 335.528 286.368 335.528 292.043 329.415V329.415Z" fill="white"/>
</svg>
