<svg width="552" height="138" viewBox="0 0 552 138" fill="none" xmlns="http://www.w3.org/2000/svg">
<path fill-rule="evenodd" clip-rule="evenodd" d="M69 0C31.05 0 0 31.05 0 69C0 106.95 31.05 138 69 138C106.95 138 138 106.95 138 69C138 31.05 106.95 0 69 0V0Z" fill="white"/>
<path fill-rule="evenodd" clip-rule="evenodd" d="M483 0C445.05 0 414 31.05 414 69C414 106.95 445.05 138 483 138C520.95 138 552 106.95 552 69C552 31.05 520.95 0 483 0V0Z" fill="white"/>
<path fill-rule="evenodd" clip-rule="evenodd" d="M276 0C238.05 0 207 31.05 207 69C207 106.95 238.05 138 276 138C313.95 138 345 106.95 345 69C345 31.05 313.95 0 276 0V0Z" fill="white"/>
</svg>
