<svg width="640" height="98" viewBox="0 0 105 16" fill="none" xmlns="http://www.w3.org/2000/svg">
<path d="M5.5686 7.62477L5.2166 8.94477H8.2746L7.9446 7.62477C7.73927 6.9061 7.54127 6.14343 7.3506 5.33677C7.15993 4.5301 6.96927 3.75277 6.7786 3.00477H6.6906C6.5146 3.76743 6.33127 4.5521 6.1406 5.35877C5.9646 6.15077 5.77393 6.9061 5.5686 7.62477ZM0.376598 14.8848L4.8646 0.540765H8.7586L13.2466 14.8848H9.8146L8.9346 11.4748H4.5566L3.6766 14.8848H0.376598ZM17.5999 14.8848V0.452765H21.2079C23.4373 0.452765 25.1313 1.06877 26.2899 2.30077C27.4486 3.53276 28.0279 5.3001 28.0279 7.60276C28.0279 8.74677 27.8813 9.77343 27.5879 10.6828C27.2946 11.5774 26.8619 12.3401 26.2899 12.9708C25.7179 13.5868 25.0139 14.0634 24.1779 14.4008C23.3419 14.7234 22.3813 14.8848 21.2959 14.8848H17.5999ZM19.4259 13.3888H21.0759C22.7626 13.3888 24.0239 12.8828 24.8599 11.8708C25.7106 10.8588 26.1359 9.4361 26.1359 7.60276C26.1359 5.76943 25.7106 4.36877 24.8599 3.40077C24.0239 2.43277 22.7626 1.94877 21.0759 1.94877H19.4259V13.3888ZM33.6351 14.8848V0.452765H35.4611V14.8848H33.6351ZM48.5327 14.8848V0.540765H51.7667V12.1568H57.4427V14.8848H48.5327ZM62.7054 14.8848V0.452765H71.0214V1.99277H64.5314V6.52477H70.0094V8.08677H64.5314V13.3228H71.2414V14.8848H62.7054ZM82.131 15.1488C81.2216 15.1488 80.3856 14.9728 79.623 14.6208C78.875 14.2688 78.2296 13.7701 77.687 13.1248C77.1443 12.4648 76.719 11.6728 76.411 10.7488C76.1176 9.8101 75.971 8.76143 75.971 7.60276C75.971 6.4441 76.1176 5.4101 76.411 4.50076C76.719 3.57677 77.1443 2.79943 77.687 2.16877C78.2296 1.52343 78.875 1.0321 79.623 0.694765C80.3856 0.357431 81.2216 0.188765 82.131 0.188765C83.0403 0.188765 83.869 0.364765 84.617 0.716764C85.3796 1.0541 86.0323 1.54543 86.575 2.19077C87.1323 2.82143 87.5576 3.59876 87.851 4.52277C88.159 5.4321 88.313 6.45877 88.313 7.60276C88.313 8.76143 88.159 9.8101 87.851 10.7488C87.5576 11.6728 87.1323 12.4648 86.575 13.1248C86.0323 13.7701 85.3796 14.2688 84.617 14.6208C83.869 14.9728 83.0403 15.1488 82.131 15.1488ZM82.131 13.5428C82.7763 13.5428 83.3556 13.4034 83.869 13.1248C84.397 12.8461 84.8443 12.4501 85.211 11.9368C85.5923 11.4088 85.8856 10.7854 86.091 10.0668C86.2963 9.33343 86.399 8.5121 86.399 7.60276C86.399 6.7081 86.2963 5.90143 86.091 5.18277C85.8856 4.4641 85.5923 3.85543 85.211 3.35676C84.8443 2.8581 84.397 2.47676 83.869 2.21276C83.3556 1.9341 82.7763 1.79476 82.131 1.79476C81.4856 1.79476 80.899 1.9341 80.371 2.21276C79.8576 2.47676 79.4103 2.8581 79.029 3.35676C78.6623 3.85543 78.3763 4.4641 78.171 5.18277C77.9656 5.90143 77.863 6.7081 77.863 7.60276C77.863 8.5121 77.9656 9.33343 78.171 10.0668C78.3763 10.7854 78.6623 11.4088 79.029 11.9368C79.4103 12.4501 79.8576 12.8461 80.371 13.1248C80.899 13.4034 81.4856 13.5428 82.131 13.5428ZM93.9163 14.8848V0.452765H95.8083L101.022 9.51677L102.584 12.5088H102.672C102.628 11.7754 102.577 11.0201 102.518 10.2428C102.474 9.45077 102.452 8.67343 102.452 7.91077V0.452765H104.19V14.8848H102.298L97.0623 5.79877L95.5003 2.82876H95.4123C95.471 3.5621 95.5223 4.3101 95.5663 5.07277C95.625 5.82077 95.6543 6.5761 95.6543 7.33877V14.8848H93.9163Z" fill="#01BDBD"/>
</svg>
