<svg width="19" height="12" viewBox="0 0 19 12" fill="none" xmlns="http://www.w3.org/2000/svg">
<path fill-rule="evenodd" clip-rule="evenodd" d="M16.7733 11.4476C16.5081 11.4515 16.2464 11.3893 16.0143 11.267L9.94257 8.09628V9.95972C9.94201 10.4755 9.65248 10.9519 9.18293 11.2096C8.71337 11.4673 8.13507 11.4671 7.66565 11.2092L0.751421 7.36679C0.299795 7.11534 0.0160903 6.66028 0.000662186 6.16256C-0.0147659 5.66484 0.240258 5.19465 0.675524 4.91831L7.58976 0.534161C8.0551 0.238705 8.65349 0.210759 9.14699 0.461434C9.6405 0.712108 9.94913 1.20077 9.95016 1.73312V3.97214C9.95016 4.37104 9.61036 4.69441 9.19119 4.69441C8.77202 4.69441 8.43222 4.37104 8.43222 3.97214V1.71145L1.51039 6.13894L8.42463 9.98139V8.12517C8.41696 7.60548 8.70325 7.12195 9.17432 6.85895C9.64538 6.59596 10.2286 6.59406 10.7015 6.85398L16.7733 10.0247V2.25315L12.5307 4.0877C12.1492 4.25325 11.699 4.09318 11.525 3.73018C11.3511 3.36719 11.5193 2.93872 11.9007 2.77318L16.1434 0.938629C16.6133 0.734648 17.16 0.772058 17.5944 1.03793C18.0288 1.30379 18.2914 1.76163 18.2913 2.25315V10.0247C18.2913 10.8225 17.6117 11.4693 16.7733 11.4693V11.4476Z" fill="white"/>
</svg>
