<svg width="19" height="12" viewBox="0 0 19 12" fill="none" xmlns="http://www.w3.org/2000/svg">
<path fill-rule="evenodd" clip-rule="evenodd" d="M2.22668 0.312913C2.49191 0.308961 2.75359 0.371218 2.98565 0.49348L9.05743 3.66422L9.05743 1.80078C9.05799 1.28496 9.34752 0.808569 9.81707 0.55089C10.2866 0.293211 10.8649 0.293353 11.3343 0.551262L18.2486 4.39371C18.7002 4.64516 18.9839 5.10022 18.9993 5.59794C19.0148 6.09566 18.7597 6.56585 18.3245 6.84219L11.4102 11.2263C10.9449 11.5218 10.3465 11.5497 9.85301 11.2991C9.3595 11.0484 9.05087 10.5597 9.04984 10.0274L9.04984 7.78836C9.04984 7.38946 9.38964 7.06609 9.80881 7.06609C10.228 7.06609 10.5678 7.38946 10.5678 7.78836L10.5678 10.049L17.4896 5.62156L10.5754 1.77911L10.5754 3.63533C10.583 4.15501 10.2967 4.63855 9.82568 4.90154C9.35462 5.16454 8.7714 5.16644 8.29846 4.90652L2.22668 1.73577L2.22668 9.50735L6.46933 7.67279C6.85078 7.50725 7.30102 7.66732 7.47497 8.03031C7.64893 8.39331 7.48073 8.82177 7.09928 8.98731L2.85663 10.8219C2.3867 11.0258 1.84003 10.9884 1.40561 10.7226C0.971193 10.4567 0.708645 9.99887 0.708737 9.50735L0.708737 1.73577C0.708737 0.937983 1.38834 0.291245 2.22668 0.291245L2.22668 0.312913Z" fill="white"/>
</svg>
