<svg width="170" height="154" viewBox="0 0 170 154" fill="none" xmlns="http://www.w3.org/2000/svg">
<path d="M161.5 76.9999H158.667V23.0999C158.657 16.0159 152.32 10.2749 144.5 10.2666H25.5C17.68 10.2749 11.3425 16.0159 11.3333 23.0999V61.5999H8.5C3.80552 61.5999 0 65.0473 0 69.2999V136.033C0 140.286 3.80552 143.733 8.5 143.733H116.167C117.731 143.733 119 142.584 119 141.167C118.991 134.083 112.653 128.342 104.833 128.333H96.3333V112.933H130.333V136.033C130.333 140.286 134.139 143.733 138.833 143.733H161.5C166.194 143.733 170 140.286 170 136.033V84.6999C170 80.4473 166.194 76.9999 161.5 76.9999ZM62.3333 136.033C62.3333 137.451 61.0647 138.6 59.5 138.6H8.5C6.93529 138.6 5.66667 137.451 5.66667 136.033V133.467H62.3333V136.033ZM62.3333 128.333H5.66667V69.2999C5.66667 67.8825 6.93529 66.7333 8.5 66.7333H59.5C61.0647 66.7333 62.3333 67.8825 62.3333 69.2999V128.333ZM104.833 133.467C108.434 133.47 111.644 135.526 112.849 138.6H67.4787C67.8144 137.778 67.9904 136.91 68 136.033V133.467H104.833ZM68 128.333V112.933H73.6667V128.333H68ZM79.3333 128.333V112.933H90.6667V128.333H79.3333ZM130.333 107.8H68V92.3999H130.333V107.8ZM130.333 84.6999V87.2666H68V69.2999C67.9904 68.0821 67.6579 66.8841 67.031 65.8067C67.0735 65.7708 67.1302 65.7605 67.1698 65.722L95.2198 40.312C96.3071 39.2924 96.276 37.6674 95.1504 36.6827C94.0525 35.7222 92.3118 35.7222 91.2135 36.6827L63.1635 62.0927C63.0955 62.1569 63.0672 62.239 63.0077 62.3058C61.9083 61.8438 60.7116 61.6031 59.5 61.5999H17V23.0999C17 18.8473 20.8055 15.3999 25.5 15.3999H144.5C149.194 15.3999 153 18.8473 153 23.0999V76.9999H138.833C134.139 76.9999 130.333 80.4473 130.333 84.6999ZM164.333 136.033C164.333 137.451 163.065 138.6 161.5 138.6H138.833C137.269 138.6 136 137.451 136 136.033V133.467H164.333V136.033ZM164.333 128.333H136V84.6999C136 83.2825 137.269 82.1333 138.833 82.1333H161.5C163.065 82.1333 164.333 83.2825 164.333 84.6999V128.333Z" fill="white"/>
<path d="M33.8556 92.8413C32.7492 91.8394 30.9557 91.8394 29.8493 92.8413L17.8303 103.729C16.7047 104.714 16.6736 106.339 17.7609 107.358C18.8482 108.378 20.6417 108.406 21.7672 107.421C21.7909 107.401 21.8139 107.38 21.8366 107.358L33.8556 96.4706C34.3614 95.6765 33.3449 94.167 33.8556 92.8413Z" fill="white"/>
<path d="M50.7862 92.8415C49.6883 91.8809 47.9476 91.8809 46.8493 92.8415L34.8303 103.729C33.7047 104.714 33.6736 106.339 34.7609 107.359C35.8478 108.378 37.6417 108.406 38.7672 107.421C38.7909 107.401 38.8139 107.38 38.8366 107.359L50.8556 96.4708C51.9426 95.4512 51.9117 93.8262 50.7862 92.8415Z" fill="white"/>
<path d="M112.434 36.6853C111.336 35.7247 109.595 35.7247 108.497 36.6853L80.447 62.0953C79.3215 63.0799 79.2903 64.7049 80.3773 65.7245C81.4642 66.7441 83.258 66.7724 84.3836 65.7877C84.4073 65.7672 84.4303 65.746 84.4534 65.7245L112.503 40.3145C113.591 39.2949 113.559 37.6699 112.434 36.6853Z" fill="white"/>
<path d="M156.107 99.7895C155.009 98.8286 153.268 98.8286 152.17 99.7895L144.157 107.048C143.031 108.033 143 109.658 144.088 110.677C145.175 111.697 146.968 111.725 148.094 110.74C148.117 110.72 148.141 110.698 148.163 110.677L156.176 103.419C157.263 102.399 157.232 100.774 156.107 99.7895Z" fill="white"/>
<path d="M85.0565 97.5332H85.0282C83.4635 97.5403 82.2012 98.6953 82.209 100.113C82.2168 101.53 83.4918 102.674 85.0565 102.667C86.6212 102.667 87.8899 101.517 87.8899 100.1C87.8899 98.6824 86.6212 97.5332 85.0565 97.5332Z" fill="white"/>
<path d="M90.6667 20.5332H79.3333C77.7686 20.5332 76.5 21.6824 76.5 23.0999C76.5 24.5173 77.7686 25.6665 79.3333 25.6665H90.6667C92.2314 25.6665 93.5 24.5173 93.5 23.0999C93.5 21.6824 92.2314 20.5332 90.6667 20.5332Z" fill="white"/>
</svg>
