<svg width="52" height="50" viewBox="0 0 52 50" fill="none" xmlns="http://www.w3.org/2000/svg">
<path d="M46.4286 0H5.57143C4.09379 0 2.67668 0.564412 1.63183 1.56907C0.586988 2.57373 0 3.93634 0 5.35714L0 44.6429C0 46.0637 0.586988 47.4263 1.63183 48.4309C2.67668 49.4356 4.09379 50 5.57143 50H21.5022V33.0011H14.1897V25H21.5022V18.9018C21.5022 11.9654 25.7969 8.13393 32.3746 8.13393C35.5248 8.13393 38.8189 8.67411 38.8189 8.67411V15.4821H35.1894C31.6132 15.4821 30.4978 17.6161 30.4978 19.8047V25H38.4812L37.2044 33.0011H30.4978V50H46.4286C47.9062 50 49.3233 49.4356 50.3682 48.4309C51.413 47.4263 52 46.0637 52 44.6429V5.35714C52 3.93634 51.413 2.57373 50.3682 1.56907C49.3233 0.564412 47.9062 0 46.4286 0Z" fill="#1877F2"/>
</svg>
