<svg width="55" height="27" viewBox="0 0 55 27" fill="none" xmlns="http://www.w3.org/2000/svg">
<path d="M0 3.59179C0 1.93494 1.34315 0.591797 3 0.591797H37.0408L16.6476 26.4081H3C1.34314 26.4081 0 25.065 0 23.4081V3.59179Z" fill="#C4C4C4"/>
<path d="M55 23.4082C55 25.0651 53.6569 26.4082 52 26.4082H17.9592L38.3524 0.591877H52C53.6569 0.591877 55 1.93502 55 3.59188V23.4082Z" fill="#C4C4C4"/>
<path d="M7.99065 14.0238L7.62265 15.3038H10.2947L9.92665 14.0238C9.75599 13.4691 9.59065 12.8985 9.43065 12.3118C9.28132 11.7251 9.13199 11.1438 8.98265 10.5678H8.91865C8.76932 11.1545 8.61999 11.7411 8.47065 12.3278C8.32132 12.9038 8.16132 13.4691 7.99065 14.0238ZM4.48665 19.5918L7.89465 9.1278H10.0707L13.4787 19.5918H11.5267L10.7107 16.7598H7.19065L6.37465 19.5918H4.48665Z" fill="white"/>
<path d="M42.5749 19.5918V9.1278H45.9189C46.4629 9.1278 46.9589 9.1758 47.4069 9.2718C47.8656 9.35713 48.2603 9.50113 48.5909 9.7038C48.9323 9.8958 49.1936 10.1571 49.3749 10.4878C49.5669 10.8185 49.6629 11.2238 49.6629 11.7038C49.6629 12.2051 49.5349 12.6691 49.2789 13.0958C49.0229 13.5225 48.6656 13.8158 48.2069 13.9758V14.0398C48.7829 14.1678 49.2576 14.4398 49.6309 14.8558C50.0149 15.2611 50.2069 15.8158 50.2069 16.5198C50.2069 17.0425 50.1056 17.4958 49.9029 17.8798C49.7003 18.2638 49.4176 18.5838 49.0549 18.8398C48.7029 19.0958 48.2816 19.2878 47.7909 19.4158C47.3003 19.5331 46.7669 19.5918 46.1909 19.5918H42.5749ZM44.4309 13.4478H45.7589C46.4949 13.4478 47.0229 13.3145 47.3429 13.0478C47.6736 12.7811 47.8389 12.4238 47.8389 11.9758C47.8389 11.4638 47.6683 11.1011 47.3269 10.8878C46.9856 10.6745 46.4736 10.5678 45.7909 10.5678H44.4309V13.4478ZM44.4309 18.1518H45.9989C46.7669 18.1518 47.3589 18.0131 47.7749 17.7358C48.1909 17.4478 48.3989 17.0105 48.3989 16.4238C48.3989 15.8691 48.1963 15.4691 47.7909 15.2238C47.3856 14.9678 46.7883 14.8398 45.9989 14.8398H44.4309V18.1518Z" fill="white"/>
</svg>
