<svg width="53" height="50" viewBox="0 0 53 50" fill="none" xmlns="http://www.w3.org/2000/svg">
<rect x="0.400879" width="51.7148" height="49.6462" rx="10" fill="url(#paint0_linear)"/>
<path d="M25.9181 15.4444C20.048 15.4444 15.3132 19.7856 15.3132 25.1677C15.3132 30.5497 20.048 34.8909 25.9181 34.8909C31.7881 34.8909 36.5229 30.5497 36.5229 25.1677C36.5229 19.7856 31.7881 15.4444 25.9181 15.4444ZM25.9181 31.4891C22.1247 31.4891 19.0235 28.6542 19.0235 25.1677C19.0235 21.6812 22.1155 18.8463 25.9181 18.8463C29.7207 18.8463 32.8126 21.6812 32.8126 25.1677C32.8126 28.6542 29.7115 31.4891 25.9181 31.4891ZM39.4303 15.0466C39.4303 16.3075 38.3227 17.3146 36.9567 17.3146C35.5815 17.3146 34.4832 16.2991 34.4832 15.0466C34.4832 13.7942 35.5907 12.7787 36.9567 12.7787C38.3227 12.7787 39.4303 13.7942 39.4303 15.0466ZM46.454 17.3484C46.2971 14.3104 45.5403 11.6194 43.1129 9.40223C40.6947 7.18509 37.7597 6.49117 34.4463 6.33885C31.0313 6.16114 20.7956 6.16114 17.3807 6.33885C14.0765 6.48271 11.1414 7.17663 8.71403 9.39377C6.28664 11.6109 5.53904 14.302 5.37291 17.34C5.17908 20.471 5.17908 29.8558 5.37291 32.9869C5.52981 36.0249 6.28664 38.7159 8.71403 40.9331C11.1414 43.1502 14.0672 43.8441 17.3807 43.9965C20.7956 44.1742 31.0313 44.1742 34.4463 43.9965C37.7597 43.8526 40.6947 43.1587 43.1129 40.9331C45.5311 38.7159 46.2879 36.0249 46.454 32.9869C46.6478 29.8558 46.6478 20.4795 46.454 17.3484ZM42.0422 36.3465C41.3223 38.0051 39.9287 39.2829 38.1104 39.9515C35.3877 40.9416 28.9269 40.7131 25.9181 40.7131C22.9092 40.7131 16.4392 40.9331 13.7257 39.9515C11.9167 39.2914 10.523 38.0136 9.7939 36.3465C8.71403 33.8501 8.96323 27.9264 8.96323 25.1677C8.96323 22.4089 8.72326 16.4768 9.7939 13.9888C10.5138 12.3302 11.9075 11.0524 13.7257 10.3839C16.4485 9.39377 22.9092 9.62225 25.9181 9.62225C28.9269 9.62225 35.3969 9.40223 38.1104 10.3839C39.9194 11.0439 41.3131 12.3218 42.0422 13.9888C43.1221 16.4853 42.8729 22.4089 42.8729 25.1677C42.8729 27.9264 43.1221 33.8585 42.0422 36.3465Z" fill="white"/>
<defs>
<linearGradient id="paint0_linear" x1="26.2583" y1="0" x2="26.2583" y2="49.6462" gradientUnits="userSpaceOnUse">
<stop stop-color="#5756D0"/>
<stop offset="0.229167" stop-color="#8434AE"/>
<stop offset="0.40625" stop-color="#CE2C84"/>
<stop offset="0.6875" stop-color="#FBC878"/>
<stop offset="0.979167" stop-color="#F96297"/>
</linearGradient>
</defs>
</svg>
