<svg width="72" height="33" viewBox="0 0 72 33" fill="none" xmlns="http://www.w3.org/2000/svg">
<g filter="url(#filter0_d)">
<path d="M4.522 28V4.528H12.586C13.882 4.528 15.094 4.66 16.222 4.924C17.35 5.164 18.334 5.584 19.174 6.184C20.014 6.76 20.674 7.54 21.154 8.524C21.658 9.484 21.91 10.672 21.91 12.088C21.91 13.456 21.658 14.644 21.154 15.652C20.674 16.66 20.014 17.488 19.174 18.136C18.334 18.784 17.362 19.264 16.258 19.576C15.154 19.888 13.978 20.044 12.73 20.044H9.814V28H4.522ZM9.814 15.832H12.406C15.286 15.832 16.726 14.584 16.726 12.088C16.726 10.864 16.342 10 15.574 9.496C14.806 8.992 13.702 8.74 12.262 8.74H9.814V15.832ZM35.5073 28.432C33.9233 28.432 32.4713 28.156 31.1513 27.604C29.8553 27.028 28.7393 26.212 27.8033 25.156C26.8673 24.1 26.1353 22.816 25.6073 21.304C25.1033 19.792 24.8513 18.076 24.8513 16.156C24.8513 14.236 25.1033 12.532 25.6073 11.044C26.1353 9.532 26.8673 8.272 27.8033 7.264C28.7393 6.232 29.8553 5.452 31.1513 4.924C32.4713 4.372 33.9233 4.096 35.5073 4.096C37.0913 4.096 38.5313 4.372 39.8273 4.924C41.1473 5.452 42.2753 6.232 43.2113 7.264C44.1473 8.296 44.8673 9.568 45.3713 11.08C45.8993 12.568 46.1633 14.26 46.1633 16.156C46.1633 18.076 45.8993 19.792 45.3713 21.304C44.8673 22.816 44.1473 24.1 43.2113 25.156C42.2753 26.212 41.1473 27.028 39.8273 27.604C38.5313 28.156 37.0913 28.432 35.5073 28.432ZM35.5073 23.86C37.1153 23.86 38.3873 23.176 39.3233 21.808C40.2593 20.416 40.7273 18.532 40.7273 16.156C40.7273 13.804 40.2593 11.968 39.3233 10.648C38.3873 9.328 37.1153 8.668 35.5073 8.668C33.8993 8.668 32.6273 9.328 31.6913 10.648C30.7553 11.968 30.2873 13.804 30.2873 16.156C30.2873 18.532 30.7553 20.416 31.6913 21.808C32.6273 23.176 33.8993 23.86 35.5073 23.86ZM50.5767 28V4.528H58.6407C59.9367 4.528 61.1487 4.66 62.2767 4.924C63.4047 5.164 64.3887 5.584 65.2287 6.184C66.0687 6.76 66.7287 7.54 67.2087 8.524C67.7127 9.484 67.9647 10.672 67.9647 12.088C67.9647 13.456 67.7127 14.644 67.2087 15.652C66.7287 16.66 66.0687 17.488 65.2287 18.136C64.3887 18.784 63.4167 19.264 62.3127 19.576C61.2087 19.888 60.0327 20.044 58.7847 20.044H55.8687V28H50.5767ZM55.8687 15.832H58.4607C61.3407 15.832 62.7807 14.584 62.7807 12.088C62.7807 10.864 62.3967 10 61.6287 9.496C60.8607 8.992 59.7567 8.74 58.3167 8.74H55.8687V15.832Z" fill="white"/>
</g>
<defs>
<filter id="filter0_d" x="0.521973" y="0.0959473" width="71.4427" height="32.336" filterUnits="userSpaceOnUse" color-interpolation-filters="sRGB">
<feFlood flood-opacity="0" result="BackgroundImageFix"/>
<feColorMatrix in="SourceAlpha" type="matrix" values="0 0 0 0 0 0 0 0 0 0 0 0 0 0 0 0 0 0 127 0"/>
<feOffset/>
<feGaussianBlur stdDeviation="2"/>
<feColorMatrix type="matrix" values="0 0 0 0 0 0 0 0 0 0.964706 0 0 0 0 0.952941 0 0 0 1 0"/>
<feBlend mode="normal" in2="BackgroundImageFix" result="effect1_dropShadow"/>
<feBlend mode="normal" in="SourceGraphic" in2="effect1_dropShadow" result="shape"/>
</filter>
</defs>
</svg>
