<svg width="52" height="50" viewBox="0 0 52 50" fill="none" xmlns="http://www.w3.org/2000/svg">
<path d="M46.4286 0H5.57143C2.49554 0 0 2.39955 0 5.35714V44.6429C0 47.6004 2.49554 50 5.57143 50H46.4286C49.5045 50 52 47.6004 52 44.6429V5.35714C52 2.39955 49.5045 0 46.4286 0ZM40.7527 17.7232C40.7759 18.0357 40.7759 18.3594 40.7759 18.6719C40.7759 28.3482 33.1152 39.4978 19.117 39.4978C14.7991 39.4978 10.7946 38.2924 7.42857 36.2165C8.04375 36.2835 8.63571 36.3058 9.2625 36.3058C12.8259 36.3058 16.0991 35.1451 18.7107 33.1808C15.3679 33.1138 12.5589 31.0045 11.5955 28.1027C12.7679 28.2701 13.8241 28.2701 15.0312 27.9688C11.5491 27.2879 8.9375 24.3415 8.9375 20.7812V20.692C9.94732 21.2388 11.1312 21.5737 12.3732 21.6183C11.3291 20.9505 10.4731 20.0445 9.88171 18.9812C9.29031 17.9179 8.98188 16.7304 8.98393 15.5246C8.98393 14.1629 9.35536 12.9129 10.017 11.8304C13.7661 16.2723 19.3955 19.1741 25.7098 19.4866C24.6304 14.5201 28.4955 10.4911 33.1384 10.4911C35.3321 10.4911 37.3054 11.3728 38.6982 12.8013C40.4161 12.4888 42.0643 11.875 43.5268 11.0379C42.958 12.7344 41.7625 14.1629 40.1839 15.067C41.7161 14.9107 43.2018 14.4978 44.5714 13.9286C43.5384 15.3906 42.2384 16.6853 40.7527 17.7232Z" fill="#00ACEE"/>
</svg>
