<svg width="17" height="11" viewBox="0 0 17 11" fill="none" xmlns="http://www.w3.org/2000/svg">
<path d="M3.82495 2.02749L4.28995 2.21126L4.29509 2.19826L4.29949 2.18499L3.82495 2.02749ZM3.07496 2.49998L3.10996 2.00121L3.09248 1.99998H3.07496V2.49998ZM7.38757 2.50001L7.35257 2.99878L7.37005 3.00001H7.38757V2.50001ZM6.63758 2.9725L6.17258 2.78873L6.16744 2.80173L6.16303 2.815L6.63758 2.9725ZM12.6372 8.02743L12.1626 8.18493L12.167 8.1982L12.1722 8.2112L12.6372 8.02743ZM13.3871 8.49992V7.99992H13.3696L13.3521 8.00115L13.3871 8.49992ZM9.82487 8.97244L10.2994 8.81494L10.295 8.80167L10.2899 8.78867L9.82487 8.97244ZM9.07488 8.49995V8.99995H9.0924L9.10987 8.99872L9.07488 8.49995ZM5.25038 0.500001C4.38791 0.499218 3.62208 1.05142 3.3504 1.86999L4.29949 2.18499C4.43533 1.77571 4.81824 1.49961 5.24947 1.5L5.25038 0.500001ZM3.35994 1.84371C3.31987 1.94511 3.21871 2.00884 3.10996 2.00121L3.03996 2.99875C3.58377 3.03691 4.08958 2.71825 4.28995 2.21126L3.35994 1.84371ZM3.07496 1.99998H0V2.99998H3.07496V1.99998ZM16.4999 2.00001H7.38757V3.00001H16.4999V2.00001ZM7.42256 2.00123C6.87876 1.96308 6.37294 2.28174 6.17258 2.78873L7.10258 3.15627C7.14265 3.05488 7.24381 2.99115 7.35257 2.99878L7.42256 2.00123ZM6.16303 2.815C6.02719 3.22428 5.64428 3.50038 5.21305 3.49999L5.21214 4.49999C6.07462 4.50077 6.84044 3.94857 7.11212 3.13L6.16303 2.815ZM11.2126 7.49994C11.6439 7.49955 12.0268 7.77565 12.1626 8.18493L13.1117 7.86993C12.84 7.05136 12.0742 6.49916 11.2117 6.49994L11.2126 7.49994ZM12.1722 8.2112C12.3725 8.71819 12.8783 9.03685 13.4221 8.9987L13.3521 8.00115C13.2434 8.00878 13.1422 7.94505 13.1022 7.84366L12.1722 8.2112ZM13.3871 8.99992H16.4996V7.99992H13.3871V8.99992ZM11.2494 9.49993C10.8182 9.50032 10.4352 9.22422 10.2994 8.81494L9.35032 9.12994C9.622 9.94851 10.3878 10.5007 11.2503 10.4999L11.2494 9.49993ZM10.2899 8.78867C10.0895 8.28169 9.58368 7.96302 9.03988 8.00118L9.10987 8.99872C9.21863 8.99109 9.31979 9.05482 9.35986 9.15622L10.2899 8.78867ZM9.07488 7.99995H0V8.99995H9.07488V7.99995Z" fill="#01BDBD"/>
</svg>
